<svg width="20" height="22" viewBox="0 0 20 22" fill="none" xmlns="http://www.w3.org/2000/svg">
<path d="M12.5 4.88889C13.2371 5.04869 13.9689 5.40991 14.5 6C15.0311 6.59009 15.3562 7.40316 15.5 8.22222M13 1C14.5315 1.18905 15.9097 2.0123 17 3.22222C18.0903 4.43215 18.8279 5.96521 19 7.66667M18.9994 15.9741V18.9849C19.0037 20.1359 18.0723 21.097 17.0264 20.9922C8.00002 21 1 13.15 1.00706 3.18798C0.912875 2.03216 1.77358 1.00118 2.80811 1.0001H5.52326C5.96249 0.995304 6.3883 1.16778 6.72133 1.48538C7.66815 2.38833 8.27715 5.45308 8.04283 6.67142C7.85989 7.62263 6.99692 8.2881 6.41021 8.93871C7.6986 11.4513 9.57467 13.5317 11.8405 14.9604C12.4272 14.3098 13.0273 13.3529 13.8851 13.15C14.9855 12.8898 17.7615 13.5674 18.5709 14.6267C18.858 15.0024 19.0105 15.4819 18.9994 15.9741Z" stroke="black" stroke-width="2" stroke-linecap="round" stroke-linejoin="round"/>
</svg>
