<svg width="5000" height="5000" viewBox="0 0 23 23" fill="none" xmlns="http://www.w3.org/2000/svg">
<path d="M9.16667 2.16667C9.16667 1.52233 9.689 1 10.3333 1H12.6667C13.311 1 13.8333 1.52233 13.8333 2.16667V2.83025C13.8333 3.32935 14.1683 3.76296 14.6293 3.95433C15.0904 4.14578 15.6273 4.07281 15.9803 3.71977L16.4497 3.25039C16.9053 2.79478 17.644 2.79478 18.0996 3.25039L19.7495 4.90031C20.2051 5.35592 20.2051 6.09461 19.7495 6.55022L19.2802 7.01953C18.9272 7.37261 18.8542 7.90955 19.0456 8.3707C19.237 8.83168 19.6707 9.16667 20.1698 9.16667L20.8333 9.16667C21.4777 9.16667 22 9.689 22 10.3333V12.6667C22 13.311 21.4777 13.8333 20.8333 13.8333H20.1698C19.6707 13.8333 19.237 14.1683 19.0457 14.6293C18.8542 15.0904 18.9272 15.6273 19.2802 15.9804L19.7496 16.4497C20.2052 16.9053 20.2052 17.644 19.7496 18.0996L18.0996 19.7496C17.644 20.2052 16.9053 20.2052 16.4497 19.7496L15.9804 19.2802C15.6273 18.9272 15.0904 18.8542 14.6293 19.0457C14.1683 19.237 13.8333 19.6707 13.8333 20.1698V20.8333C13.8333 21.4777 13.311 22 12.6667 22H10.3333C9.689 22 9.16667 21.4777 9.16667 20.8333V20.1698C9.16667 19.6707 8.83168 19.237 8.3707 19.0456C7.90955 18.8542 7.3726 18.9272 7.01953 19.2802L6.55021 19.7495C6.09459 20.2052 5.3559 20.2052 4.90029 19.7495L3.25037 18.0996C2.79476 17.644 2.79476 16.9053 3.25037 16.4497L3.71977 15.9803C4.07281 15.6273 4.14578 15.0904 3.95433 14.6293C3.76296 14.1683 3.32935 13.8333 2.83025 13.8333H2.16667C1.52233 13.8333 1 13.311 1 12.6667V10.3333C1 9.689 1.52233 9.16667 2.16667 9.16667L2.83023 9.16667C3.32934 9.16667 3.76296 8.83169 3.95434 8.37073C4.1458 7.90959 4.07283 7.37267 3.71977 7.01961L3.25039 6.55023C2.79478 6.09462 2.79478 5.35592 3.25039 4.90031L4.90031 3.2504C5.35592 2.79479 6.09461 2.79479 6.55023 3.2504L7.0196 3.71977C7.37266 4.07283 7.90958 4.1458 8.37072 3.95434C8.83169 3.76296 9.16667 3.32934 9.16667 2.83022V2.16667Z" stroke="black" stroke-width="2"/>
<path d="M13.8333 11.5C13.8333 12.7887 12.7887 13.8333 11.5 13.8333C10.2113 13.8333 9.16667 12.7887 9.16667 11.5C9.16667 10.2113 10.2113 9.16667 11.5 9.16667C12.7887 9.16667 13.8333 10.2113 13.8333 11.5Z" stroke="black" stroke-width="2"/>
</svg>
