<svg width="84" height="47" viewBox="0 0 84 47" fill="none" xmlns="http://www.w3.org/2000/svg">
<path d="M1.224 36.272C1.13867 34.9067 1.05333 33.0507 0.968 30.704C0.882667 28.3573 0.84 25.9467 0.84 23.472C0.84 22.064 0.84 20.6133 0.84 19.12C0.882667 17.584 0.925334 16.0267 0.968 14.448C1.05333 11.2907 1.24533 8.816 1.544 7.024C1.88533 5.232 2.52533 3.888 3.464 2.992C4.44533 2.096 5.81067 1.54133 7.56 1.328C9.30933 1.11467 11.6347 1.008 14.536 1.008C14.5787 1.008 15.0267 1.008 15.88 1.008C16.776 1.008 17.8427 1.02933 19.08 1.072C20.3173 1.072 21.5973 1.09333 22.92 1.136C24.2853 1.17866 25.416 1.22133 26.312 1.264C27.2507 1.34933 27.9973 1.47733 28.552 1.648C29.1493 1.776 29.5973 1.968 29.896 2.224C30.1947 2.43733 30.3867 2.71467 30.472 3.056C30.5573 3.35467 30.6 3.696 30.6 4.08C30.6 5.06133 30.3227 5.78666 29.768 6.256C29.2133 6.68267 28.0827 6.96 26.376 7.088C25.5227 7.17333 24.264 7.23733 22.6 7.28C20.9787 7.28 19.3147 7.28 17.608 7.28C15.9013 7.28 14.3653 7.30133 13 7.344C11.6347 7.344 10.7813 7.344 10.44 7.344C9.33067 7.38666 8.54133 7.64266 8.072 8.112C7.64533 8.53867 7.432 9.584 7.432 11.248C7.432 11.632 7.45333 12.5707 7.496 14.064C7.58133 15.5147 7.624 17.5627 7.624 20.208H12.936C15.1973 20.208 17.032 20.2507 18.44 20.336C19.8907 20.3787 21 20.5067 21.768 20.72C22.5787 20.9333 23.1333 21.2747 23.432 21.744C23.7307 22.2133 23.88 22.832 23.88 23.6C23.88 23.984 23.8373 24.3467 23.752 24.688C23.7093 24.9867 23.5387 25.264 23.24 25.52C22.9413 25.7333 22.5147 25.9253 21.96 26.096C21.4053 26.224 20.616 26.3307 19.592 26.416C18.3547 26.5013 17.1813 26.5653 16.072 26.608C15.0053 26.608 13.9387 26.608 12.872 26.608H7.496C7.496 27.248 7.496 28.016 7.496 28.912C7.496 29.808 7.496 30.7253 7.496 31.664C7.496 32.6027 7.496 33.52 7.496 34.416C7.53867 35.312 7.58133 36.0373 7.624 36.592C7.66667 37.2747 7.752 37.8507 7.88 38.32C8.05067 38.7893 8.328 39.1733 8.712 39.472C9.13867 39.7707 9.736 39.984 10.504 40.112C11.3147 40.24 12.3813 40.304 13.704 40.304H27.464C28.9573 40.304 29.896 40.5813 30.28 41.136C30.664 41.6907 30.856 42.4373 30.856 43.376C30.856 44.144 30.6853 44.7413 30.344 45.168C30.0027 45.552 29.1707 45.8293 27.848 46C26.568 46.2133 24.6267 46.3413 22.024 46.384C19.464 46.4267 15.9227 46.448 11.4 46.448C9.48 46.448 7.90133 46.2773 6.664 45.936C5.42667 45.5947 4.424 45.0187 3.656 44.208C2.888 43.3973 2.312 42.352 1.928 41.072C1.58667 39.7493 1.352 38.1493 1.224 36.272ZM36.014 38.96C36.9953 38.96 37.8913 39.344 38.702 40.112C39.5553 40.88 39.982 41.7973 39.982 42.864C39.982 43.888 39.5553 44.784 38.702 45.552C37.8487 46.2773 36.8887 46.64 35.822 46.64C34.926 46.64 34.0727 46.2773 33.262 45.552C32.494 44.784 32.11 43.8453 32.11 42.736C32.11 41.712 32.494 40.8373 33.262 40.112C34.0727 39.344 34.99 38.96 36.014 38.96ZM54.8995 46C52.5102 46 50.5902 45.808 49.1395 45.424C47.6888 45.04 46.5582 44.5067 45.7475 43.824C44.9795 43.0987 44.4462 42.224 44.1475 41.2C43.8915 40.176 43.6995 39.024 43.5715 37.744C43.4435 36.2507 43.3368 34.288 43.2515 31.856C43.2088 29.3813 43.1875 26.8213 43.1875 24.176C43.1875 22.896 43.1875 21.552 43.1875 20.144C43.2302 18.6933 43.2515 17.2853 43.2515 15.92C43.2942 14.512 43.3368 13.2107 43.3795 12.016C43.4222 10.8213 43.4862 9.79733 43.5715 8.944C43.6995 7.62133 43.9128 6.42666 44.2115 5.36C44.5102 4.29333 45.0648 3.376 45.8755 2.608C46.7288 1.84 47.9022 1.264 49.3955 0.879997C50.9315 0.453331 52.9582 0.239998 55.4755 0.239998C61.1928 0.239998 65.4595 1.30666 68.2755 3.44C71.1342 5.53066 72.5635 8.51733 72.5635 12.4C72.5635 14.4053 72.1155 16.2613 71.2195 17.968C70.3662 19.6747 68.8728 20.9547 66.7395 21.808C67.9342 22.0213 69.0222 22.4693 70.0035 23.152C70.9848 23.8347 71.8168 24.6667 72.4995 25.648C73.2248 26.5867 73.7582 27.6533 74.0995 28.848C74.4835 30 74.6755 31.1733 74.6755 32.368C74.6755 33.904 74.3555 35.4827 73.7155 37.104C73.0755 38.6827 71.9875 40.1333 70.4515 41.456C68.9155 42.7787 66.8675 43.8667 64.3075 44.72C61.7902 45.5733 58.6542 46 54.8995 46ZM68.2755 32.176C68.2755 30.64 67.9128 29.4027 67.1875 28.464C66.5048 27.5253 65.6088 26.8213 64.4995 26.352C63.3902 25.84 62.1528 25.4987 60.7875 25.328C59.4222 25.1573 58.0568 25.072 56.6915 25.072C55.6248 25.072 54.5155 25.072 53.3635 25.072C52.2115 25.072 51.1448 25.0933 50.1635 25.136C50.1208 26.032 50.0782 26.9493 50.0355 27.888C49.9928 28.8267 49.9502 29.7227 49.9075 30.576C49.9075 31.3867 49.9075 32.112 49.9075 32.752C49.9075 33.3493 49.9075 33.776 49.9075 34.032C49.9075 35.184 49.9928 36.144 50.1635 36.912C50.3342 37.68 50.6542 38.2987 51.1235 38.768C51.5928 39.2373 52.2542 39.5787 53.1075 39.792C54.0035 39.9627 55.1342 40.048 56.4995 40.048C60.2542 40.048 63.1555 39.3867 65.2035 38.064C67.2515 36.7413 68.2755 34.7787 68.2755 32.176ZM56.4355 6.32C55.0275 6.32 53.8755 6.448 52.9795 6.704C52.1262 6.91733 51.4648 7.216 50.9955 7.6C50.5688 7.984 50.2702 8.45333 50.0995 9.008C49.9715 9.56267 49.9075 10.16 49.9075 10.8V19.76C50.5048 19.8027 51.1235 19.824 51.7635 19.824C52.4462 19.824 53.0862 19.824 53.6835 19.824C55.2195 19.824 56.7128 19.7173 58.1635 19.504C59.6568 19.2907 61.0008 18.928 62.1955 18.416C63.3902 17.904 64.3502 17.2 65.0755 16.304C65.8008 15.408 66.1635 14.256 66.1635 12.848C66.1635 10.928 65.3742 9.37067 63.7955 8.176C62.2595 6.93867 59.8062 6.32 56.4355 6.32ZM79.8615 38.96C80.8428 38.96 81.7388 39.344 82.5495 40.112C83.4028 40.88 83.8295 41.7973 83.8295 42.864C83.8295 43.888 83.4028 44.784 82.5495 45.552C81.6962 46.2773 80.7362 46.64 79.6695 46.64C78.7735 46.64 77.9202 46.2773 77.1095 45.552C76.3415 44.784 75.9575 43.8453 75.9575 42.736C75.9575 41.712 76.3415 40.8373 77.1095 40.112C77.9202 39.344 78.8375 38.96 79.8615 38.96Z" fill="black"/>
</svg>
